<svg width="37" height="37" viewBox="0 0 37 37" fill="none" xmlns="http://www.w3.org/2000/svg">
<path d="M18.4997 4.62499C15.9453 4.62499 13.8746 6.69568 13.8746 9.24999V15.4167C13.8746 17.971 15.9453 20.0417 18.4997 20.0417C21.0539 20.0417 23.1247 17.971 23.1247 15.4167V9.24999C23.1247 6.69568 21.0539 4.62499 18.4997 4.62499ZM18.4997 1.54166C22.7568 1.54166 26.208 4.9928 26.208 9.24999V15.4167C26.208 19.6738 22.7568 23.125 18.4997 23.125C14.2424 23.125 10.7913 19.6738 10.7913 15.4167V9.24999C10.7913 4.9928 14.2424 1.54166 18.4997 1.54166ZM4.70929 16.9583H7.81723C8.56529 22.1881 13.063 26.2083 18.4997 26.2083C23.9362 26.2083 28.4339 22.1881 29.182 16.9583H32.2899C31.579 23.3895 26.4726 28.496 20.0413 29.207V35.4583H16.958V29.207C10.5267 28.496 5.42023 23.3895 4.70929 16.9583Z" fill="#697680"/>
</svg>
