<svg width="24" height="25" viewBox="0 0 24 25" fill="none" xmlns="http://www.w3.org/2000/svg">
<path d="M16.9337 9.46494C16.426 5.53562 13.0675 2.5 9 2.5C4.58172 2.5 1 6.08172 1 10.5C1 12.3924 1.65707 14.1313 2.7555 15.5011C3.56351 16.5087 4.00033 17.6252 4.00025 18.8061L4 22.5H13L13.001 19.5H15C16.1046 19.5 17 18.6046 17 17.5V14.571L18.9593 13.7317C19.3025 13.5847 19.3324 13.2367 19.1842 13.0037L16.9337 9.46494ZM3 10.5C3 7.18629 5.68629 4.5 9 4.5C12.0243 4.5 14.5665 6.75141 14.9501 9.72118L15.0072 10.1626L16.5497 12.5881L15 13.2519V17.5H11.0017L11.0007 20.5H6.00013L6.00025 18.8063C6.00036 17.1672 5.40965 15.614 4.31578 14.2499C3.46818 13.1929 3 11.8849 3 10.5ZM21.1535 18.6024L19.4893 17.4929C20.4436 16.0642 21 14.3471 21 12.5001C21 10.653 20.4436 8.9359 19.4893 7.50722L21.1535 6.39771C22.32 8.14386 23 10.2425 23 12.5001C23 14.7576 22.32 16.8562 21.1535 18.6024Z" fill="#2859F5"/>
</svg>
